# xmcd CD database file
#
# Track frame offsets:
#	150
#	38111
#	92150
#	133144
#	167139
#	194149
#
# Disc length: 3119 seconds
#
# Revision: 0
# Processed by: cddbd v1.5PL3 Copyright (c) Steve Scherf et al.
# Submitted via: CDex 1.50
#
DISCID=550c2d06
DTITLE=Gary Burton and Pat Metheny - Duet 1976
DYEAR=2004
DGENRE=Jazz
TTITLE0=September 15th - Omaha Celebration
TTITLE1=Sweet Rain
TTITLE2=Midwestern Nights Dream
TTITLE3=All The Things You Are
TTITLE4=O Grande Amor
TTITLE5=Nacada
EXTD=YEAR: 2004
EXTT0=
EXTT1=
EXTT2=
EXTT3=
EXTT4=
EXTT5=
PLAYORDER=
